<svg width="64" height="64" viewBox="0 0 64 64" fill="none" xmlns="http://www.w3.org/2000/svg">
<path opacity="0.2" d="M14.5 8C13.115 8 12 9.115 12 10.5V55.5C12 56.885 13.115 58 14.5 58H49.5C50.885 58 52 56.885 52 55.5V23L38.25 21.75L37 8H14.5Z" fill="black"/>
<path d="M14.5 7C13.115 7 12 8.115 12 9.5V54.5C12 55.885 13.115 57 14.5 57H49.5C50.885 57 52 55.885 52 54.5V22L38.25 20.75L37 7H14.5Z" fill="#FF5722"/>
<path opacity="0.2" d="M37 8V20.5C37 21.8808 38.1193 23 39.5 23H52L37 8Z" fill="black"/>
<path d="M37 7V19.5C37 20.8808 38.1193 22 39.5 22H52L37 7Z" fill="#FF8660"/>
<path opacity="0.2" d="M25 33C22.2386 33 20 35.2386 20 38C20 40.7614 22.2386 43 25 43C27.7614 43 30 40.7614 30 38H25V33ZM32 33V36H43V33H32ZM32 39V42H43V39H32ZM20 45V48H38V45H20Z" fill="black"/>
<path d="M25 32C22.2386 32 20 34.2386 20 37C20 39.7614 22.2386 42 25 42C27.7614 42 30 39.7614 30 37H25V32ZM32 32V35H43V32H32ZM32 38V41H43V38H32ZM20 44V47H38V44H20Z" fill="white"/>
<path opacity="0.1" d="M14.5 7C13.115 7 12 8.115 12 9.5V10.5C12 9.115 13.115 8 14.5 8H37C37 7 37 8 37 7H14.5Z" fill="white"/>
</svg>
